<svg width="40" height="40" viewBox="0 0 40 40" fill="none" xmlns="http://www.w3.org/2000/svg">
<path d="M14.4614 0C16.7806 2.37759 16.3384 5.91789 13.1258 6.87195C8.64975 8.19788 5.07163 5.4459 1.72363 3.47972C2.59538 6.51018 4.76932 10.7976 8.81218 13.2374C6.42076 14.6845 3.27761 15.2314 0 15.6184C3.67197 17.3179 7.39538 18.8743 11.709 19.1688C8.20756 22.2228 5.00936 24.3682 0.198534 25.6386C4.14033 26.7659 8.2978 27.0183 12.1782 26.0424C8.74901 29.7274 6.85392 33.5218 5.67626 37.3751C8.83023 36.0121 11.5014 33.6732 16.2843 34.1107C16.0857 36.2561 16.6362 38.2416 18.3869 40C19.181 37.3246 21.0039 34.8847 24.3158 32.773C26.7343 35.7429 30.7682 37.5517 35.3345 38.982C33.2769 36.1551 30.7321 33.3872 31.5623 30.1144C32.1309 27.9354 34.7659 26.0087 38.7637 26.3537C37.1122 24.1915 32.6452 21.9704 28.079 20.4139C33.4123 19.1772 37.2296 16.039 40 12.8757C35.7315 13.2542 30.1636 14.8023 27.2307 12.0259C30.5697 8.86253 33.7642 5.09339 34.3057 1.33771C30.687 3.60172 27.0412 5.70335 23.0344 5.16574C21.41 3.22228 19.3345 1.27461 14.4614 0ZM24.7851 6.14L25.6424 10.2591L24.6768 10.4358C24.8573 11.8829 24.7671 13.8095 24.2798 15.6352C24 16.7121 23.5668 17.7553 22.9171 18.6051C22.7637 18.807 22.5832 19.0005 22.4027 19.1856C22.6464 19.2781 22.881 19.3959 23.1066 19.5305C24.0541 20.0858 24.8663 20.8935 25.5612 21.7937C26.7524 23.3081 27.6097 25.0581 28.0338 26.4547L28.9904 26.278L29.8658 30.3921L15.2735 33.1095L14.5697 29.7274L14.4162 28.987L15.3818 28.8104C15.2014 27.3633 15.2916 25.4366 15.7789 23.611C16.0587 22.5341 16.4918 21.4908 17.1416 20.6411C17.295 20.4392 17.4664 20.2457 17.6469 20.069C17.4033 19.968 17.1777 19.8502 16.9521 19.7156C16.0045 19.1604 15.1923 18.3527 14.4884 17.4525C13.3063 15.9381 12.449 14.1881 12.0248 12.7915L11.0592 12.9682L10.3553 9.59448L10.1929 8.85411L24.7851 6.14ZM23.5037 7.92024L12.106 10.0488L12.3407 11.1846L23.7473 9.06445L23.5037 7.92024ZM23.0615 10.7303L13.6402 12.4886C14.0282 13.6665 14.7862 15.265 15.806 16.5607C16.4196 17.3515 17.1235 18.0246 17.8184 18.4368C18.2425 18.6808 18.6486 18.8407 19.0547 18.8995L19.4247 20.6411C19.0637 20.843 18.7569 21.1291 18.4681 21.5161C17.9808 22.1471 17.6018 23.022 17.3491 23.9727C16.934 25.5376 16.8799 27.2876 16.9972 28.5159L26.4185 26.7575C26.0305 25.5797 25.2724 23.9812 24.2527 22.6855C23.639 21.8947 22.9351 21.2216 22.2403 20.8094C21.8161 20.557 21.41 20.4055 21.0039 20.3466L20.634 18.6051C20.9949 18.4032 21.3017 18.1171 21.5905 17.7301C22.0778 17.0991 22.4478 16.2241 22.7095 15.2734C23.1246 13.7086 23.1698 11.9586 23.0615 10.7303ZM27.718 28.0616L16.3113 30.1817L16.555 31.3259L27.9526 29.1974L27.718 28.0616Z" fill="#00B37E"/>
</svg>
